<svg viewBox="0 0 20 20" fill="none" xmlns="http://www.w3.org/2000/svg">
<g clip-path="url(#clip0_2763_45786)">
<rect width="20" height="20" fill="#3C3C3E"/>
<path d="M9.994 4C6.682 4 4 6.688 4 10C4 13.312 6.682 16 9.994 16C13.312 16 16 13.312 16 10C16 6.688 13.312 4 9.994 4ZM14.152 7.6H12.382C12.19 6.85 11.914 6.13 11.554 5.464C12.658 5.842 13.576 6.61 14.152 7.6ZM10 5.224C10.498 5.944 10.888 6.742 11.146 7.6H8.854C9.112 6.742 9.502 5.944 10 5.224ZM5.356 11.2C5.26 10.816 5.2 10.414 5.2 10C5.2 9.586 5.26 9.184 5.356 8.8H7.384C7.336 9.196 7.3 9.592 7.3 10C7.3 10.408 7.336 10.804 7.384 11.2H5.356ZM5.848 12.4H7.618C7.81 13.15 8.086 13.87 8.446 14.536C7.342 14.158 6.424 13.396 5.848 12.4ZM7.618 7.6H5.848C6.424 6.604 7.342 5.842 8.446 5.464C8.086 6.13 7.81 6.85 7.618 7.6ZM10 14.776C9.502 14.056 9.112 13.258 8.854 12.4H11.146C10.888 13.258 10.498 14.056 10 14.776ZM11.404 11.2H8.596C8.542 10.804 8.5 10.408 8.5 10C8.5 9.592 8.542 9.19 8.596 8.8H11.404C11.458 9.19 11.5 9.592 11.5 10C11.5 10.408 11.458 10.804 11.404 11.2ZM11.554 14.536C11.914 13.87 12.19 13.15 12.382 12.4H14.152C13.576 13.39 12.658 14.158 11.554 14.536ZM12.616 11.2C12.664 10.804 12.7 10.408 12.7 10C12.7 9.592 12.664 9.196 12.616 8.8H14.644C14.74 9.184 14.8 9.586 14.8 10C14.8 10.414 14.74 10.816 14.644 11.2H12.616Z" fill="#8B8E8F"/>
</g>
<defs>
<clipPath id="clip0_2763_45786">
<rect width="20" height="20" rx="10" fill="white"/>
</clipPath>
</defs>
</svg>
