<svg width="24" height="24" viewBox="0 0 24 24" fill="none" xmlns="http://www.w3.org/2000/svg">
<path d="M0 12C0 5.37258 5.37258 0 12 0C18.6274 0 24 5.37258 24 12C24 18.6274 18.6274 24 12 24C5.37258 24 0 18.6274 0 12Z" fill="#FF0000"/>
<path d="M17.8012 9.17961C17.7316 8.92494 17.5958 8.69277 17.4073 8.50621C17.2188 8.31966 16.9843 8.18524 16.727 8.11632C15.785 7.86206 11.994 7.86206 11.994 7.86206C11.994 7.86206 8.20292 7.86977 7.261 8.12403C7.0037 8.19294 6.76913 8.32737 6.58065 8.51392C6.39218 8.70047 6.25636 8.93264 6.18674 9.18731C5.90182 10.8439 5.79128 13.368 6.19452 14.9583C6.26415 15.213 6.39996 15.4451 6.58844 15.6317C6.77692 15.8183 7.01149 15.9527 7.26878 16.0216C8.21071 16.2759 12.0018 16.2759 12.0018 16.2759C12.0018 16.2759 15.7928 16.2759 16.7347 16.0216C16.992 15.9527 17.2266 15.8183 17.4151 15.6317C17.6036 15.4451 17.7394 15.213 17.809 14.9583C18.1095 13.2994 18.2021 10.7768 17.8012 9.17961Z" fill="white"/>
<path d="M10.7588 13.9312L13.9312 12.0691L10.7588 10.207V13.9312Z" fill="#FF0000"/>
</svg>
