<svg  width="24" height="24" viewBox="0 0 24 24" fill="none" xmlns="http://www.w3.org/2000/svg">
<path d="M0 12C0 5.37258 5.37258 0 12 0C18.6274 0 24 5.37258 24 12C24 18.6274 18.6274 24 12 24C5.37258 24 0 18.6274 0 12Z" fill="#7289da" fill-rule="nonzero" opacity="1" stroke="none"/>
<path d="M17.4105 7.35053C16.4208 6.88916 15.3492 6.55429 14.233 6.36081C14.2232 6.3605 14.2135 6.36233 14.2045 6.36619C14.1955 6.37005 14.1874 6.37583 14.1809 6.38313C14.0469 6.6287 13.8907 6.94869 13.7865 7.19426C12.6025 7.01566 11.3985 7.01566 10.2145 7.19426C10.1104 6.94125 9.95409 6.6287 9.8127 6.38313C9.80526 6.36825 9.78293 6.36081 9.76061 6.36081C8.64438 6.55429 7.58024 6.88916 6.58307 7.35053C6.57563 7.35053 6.56819 7.35798 6.56075 7.36542C4.53665 10.3941 3.97853 13.341 4.25387 16.258C4.25387 16.2729 4.26131 16.2878 4.27619 16.2953C5.61567 17.2775 6.90306 17.8729 8.17556 18.2673C8.19789 18.2747 8.22021 18.2673 8.22765 18.2524C8.52531 17.8431 8.79321 17.4115 9.0239 16.9575C9.03878 16.9278 9.0239 16.898 8.99413 16.8906C8.56996 16.7269 8.16812 16.5334 7.77372 16.3101C7.74395 16.2953 7.74395 16.2506 7.76628 16.2283C7.84813 16.1687 7.92999 16.1018 8.01185 16.0422C8.02673 16.0274 8.04906 16.0274 8.06394 16.0348C10.6238 17.2031 13.3846 17.2031 15.9147 16.0348C15.9296 16.0274 15.952 16.0274 15.9668 16.0422C16.0487 16.1092 16.1306 16.1687 16.2124 16.2357C16.2422 16.258 16.2422 16.3027 16.205 16.3176C15.818 16.5483 15.4087 16.7343 14.9846 16.898C14.9548 16.9055 14.9473 16.9427 14.9548 16.965C15.1929 17.4189 15.4608 17.8505 15.751 18.2598C15.7734 18.2673 15.7957 18.2747 15.818 18.2673C17.098 17.8729 18.3853 17.2775 19.7248 16.2953C19.7397 16.2878 19.7471 16.2729 19.7471 16.258C20.0746 12.887 19.2039 9.96251 17.4403 7.36542C17.4328 7.35798 17.4254 7.35053 17.4105 7.35053ZM9.41086 14.4795C8.64438 14.4795 8.00441 13.7726 8.00441 12.9019C8.00441 12.0312 8.6295 11.3243 9.41086 11.3243C10.1997 11.3243 10.8247 12.0387 10.8173 12.9019C10.8173 13.7726 10.1922 14.4795 9.41086 14.4795ZM14.5976 14.4795C13.8311 14.4795 13.1911 13.7726 13.1911 12.9019C13.1911 12.0312 13.8162 11.3243 14.5976 11.3243C15.3864 11.3243 16.0115 12.0387 16.004 12.9019C16.004 13.7726 15.3864 14.4795 14.5976 14.4795Z" fill="#ffffff" fill-rule="nonzero" opacity="1" stroke="none"/>
</svg>
