<svg width="24" height="24" viewBox="0 0 24 24" fill="none" xmlns="http://www.w3.org/2000/svg">
<path d="M0 12C0 5.37258 5.37258 0 12 0C18.6274 0 24 5.37258 24 12C24 18.6274 18.6274 24 12 24C5.37258 24 0 18.6274 0 12Z" fill="#2AA9E0"/>
<path d="M18.5393 8.64697C18.0899 8.8461 17.6068 8.98063 17.0999 9.04115C17.6173 8.73134 18.0148 8.24077 18.2018 7.65617C17.7176 7.9431 17.1812 8.15139 16.6103 8.26364C16.1532 7.77709 15.5019 7.47314 14.781 7.47314C13.397 7.47314 12.2748 8.59395 12.2748 9.97642C12.2748 10.1726 12.297 10.3637 12.3398 10.5469C10.2569 10.4425 8.41025 9.44588 7.17416 7.93133C6.95843 8.30104 6.83481 8.73104 6.83481 9.18983C6.83481 10.0584 7.27726 10.8246 7.94973 11.2735C7.53892 11.2605 7.15248 11.1479 6.81459 10.9604C6.81431 10.9708 6.81431 10.9813 6.81431 10.9919C6.81431 12.2047 7.6782 13.2165 8.82469 13.4466C8.6144 13.5038 8.39299 13.5344 8.16444 13.5344C8.00295 13.5344 7.84598 13.5186 7.69292 13.4895C8.01186 14.484 8.93738 15.2077 10.0341 15.2279C9.17638 15.8993 8.09579 16.2996 6.92156 16.2996C6.71927 16.2996 6.51979 16.2877 6.32373 16.2645C7.43284 16.9749 8.75017 17.3893 10.1655 17.3893C14.7752 17.3893 17.2961 13.5748 17.2961 10.2666C17.2961 10.1581 17.2936 10.0502 17.2888 9.94274C17.7784 9.58987 18.2033 9.14901 18.5393 8.64697H18.5393Z" fill="white"/>
</svg>
